<svg aria-hidden="true" style="position: absolute; width: 0; height: 0; overflow: hidden;" version="1.1" xmlns="http://www.w3.org/2000/svg" xmlns:xlink="http://www.w3.org/1999/xlink">
<defs>
<symbol id="icon-arrow-left" viewBox="0 0 32 32">
<path d="M18.295 29.857l-1.519 1.627c-0.643 0.689-1.684 0.689-2.32 0l-13.306-14.238c-0.643-0.689-0.643-1.803 0-2.484l13.306-14.245c0.643-0.689 1.684-0.689 2.32 0l1.519 1.627c0.65 0.696 0.637 1.832-0.027 2.513l-8.248 8.412h19.671c0.91 0 1.643 0.784 1.643 1.759v2.345c0 0.975-0.732 1.759-1.643 1.759h-19.671l8.248 8.412c0.671 0.681 0.685 1.817 0.027 2.513z"></path>
</symbol>
<symbol id="icon-arrow-right" viewBox="0 0 32 32">
<path d="M13.705 29.857l1.519 1.627c0.643 0.689 1.684 0.689 2.32 0l13.306-14.238c0.643-0.689 0.643-1.803 0-2.484l-13.306-14.245c-0.643-0.689-1.684-0.689-2.32 0l-1.519 1.627c-0.65 0.696-0.637 1.832 0.027 2.513l8.248 8.412h-19.671c-0.91 0-1.643 0.784-1.643 1.759v2.345c0 0.975 0.732 1.759 1.643 1.759h19.671l-8.248 8.412c-0.671 0.681-0.684 1.817-0.027 2.513z"></path>
</symbol>
<symbol id="icon-exterior" viewBox="0 0 32 32">
<path fill="#254d4d" style="fill: var(--color1, #254d4d)" d="M32 16c0 8.837-7.163 16-16 16s-16-7.163-16-16c0-8.837 7.163-16 16-16s16 7.163 16 16z"></path>
<path fill="none" stroke="#fff" style="stroke: var(--color2, #fff)" stroke-linejoin="round" stroke-linecap="round" stroke-miterlimit="4" stroke-width="0.6214" d="M15.996 21.969l6.847-5.879 2.935 2.519-6.847 5.879-2.935-2.519z"></path>
<path fill="none" stroke="#fff" style="stroke: var(--color2, #fff)" stroke-linejoin="round" stroke-linecap="round" stroke-miterlimit="4" stroke-width="0.6214" d="M21.865 16.93l-1.467-6.299-14.184-2.939 3.424 12.177 7.337 1.26 4.891-4.199z"></path>
<path fill="none" stroke="#fff" style="stroke: var(--color2, #fff)" stroke-linejoin="round" stroke-linecap="round" stroke-miterlimit="4" stroke-width="0.6214" d="M6.214 7.692l7.421 6.371"></path>
<path fill="none" stroke="#fff" style="stroke: var(--color2, #fff)" stroke-linejoin="round" stroke-linecap="round" stroke-miterlimit="4" stroke-width="0.6214" d="M15.017 16.93c1.081 0 1.956-0.752 1.956-1.68s-0.876-1.68-1.956-1.68c-1.081 0-1.956 0.752-1.956 1.68s0.876 1.68 1.956 1.68z"></path>
</symbol>
<symbol id="icon-facebook" viewBox="0 0 32 32">
<path d="M31 16.463c0-8.487-6.938-15.363-15.5-15.363s-15.5 6.876-15.5 15.363c0 7.668 5.668 14.024 13.078 15.177v-10.736h-3.938v-4.441h3.938v-3.385c0-3.85 2.312-5.977 5.854-5.977 1.696 0 3.47 0.3 3.47 0.3v3.779h-1.955c-1.925 0-2.526 1.184-2.526 2.399v2.884h4.299l-0.688 4.441h-3.611v10.736c7.41-1.154 13.078-7.509 13.078-15.177z"></path>
</symbol>
<symbol id="icon-instagram" viewBox="0 0 32 32">
<path d="M15.534 8.522c-4.321 0-7.806 3.454-7.806 7.737s3.485 7.737 7.806 7.737c4.321 0 7.806-3.454 7.806-7.737s-3.485-7.736-7.806-7.736zM15.534 21.289c-2.792 0-5.075-2.256-5.075-5.030s2.276-5.030 5.075-5.030c2.799 0 5.075 2.256 5.075 5.030s-2.283 5.030-5.075 5.030zM25.479 8.206c0 1.003-0.815 1.805-1.821 1.805-1.012 0-1.821-0.808-1.821-1.805s0.815-1.805 1.821-1.805c1.006 0 1.821 0.808 1.821 1.805zM30.649 10.037c-0.115-2.417-0.673-4.558-2.459-6.323-1.78-1.764-3.94-2.316-6.379-2.437-2.514-0.141-10.048-0.141-12.561 0-2.432 0.114-4.592 0.667-6.379 2.431s-2.337 3.905-2.459 6.323c-0.143 2.491-0.143 9.958 0 12.45 0.116 2.417 0.673 4.558 2.459 6.322s3.94 2.316 6.379 2.438c2.514 0.141 10.048 0.141 12.561 0 2.439-0.114 4.599-0.667 6.379-2.438 1.78-1.764 2.337-3.905 2.459-6.322 0.143-2.491 0.143-9.952 0-12.443zM27.402 25.154c-0.53 1.32-1.556 2.336-2.894 2.868-2.004 0.788-6.759 0.606-8.974 0.606s-6.977 0.175-8.974-0.606c-1.332-0.525-2.357-1.542-2.894-2.868-0.795-1.986-0.611-6.7-0.611-8.895s-0.177-6.915 0.611-8.895c0.53-1.32 1.556-2.336 2.894-2.868 2.004-0.788 6.76-0.606 8.974-0.606s6.977-0.175 8.974 0.606c1.331 0.525 2.357 1.542 2.894 2.868 0.795 1.986 0.611 6.7 0.611 8.895s0.183 6.915-0.611 8.895z"></path>
</symbol>
<symbol id="icon-interior" viewBox="0 0 32 32">
<path fill="#254d4d" style="fill: var(--color1, #254d4d)" d="M32 16c0 8.837-7.163 16-16 16s-16-7.163-16-16c0-8.837 7.163-16 16-16s16 7.163 16 16z"></path>
<path fill="none" stroke="#fff" style="stroke: var(--color2, #fff)" stroke-linejoin="round" stroke-linecap="round" stroke-miterlimit="4" stroke-width="0.6214" d="M7.146 13.392l8.804-5.936 8.804 5.936v9.328c0 0.45-0.206 0.881-0.573 1.199s-0.865 0.497-1.383 0.497h-13.695c-0.519 0-1.016-0.179-1.383-0.497s-0.573-0.749-0.573-1.199v-9.328z"></path>
<path fill="none" stroke="#fff" style="stroke: var(--color2, #fff)" stroke-linejoin="round" stroke-linecap="round" stroke-miterlimit="4" stroke-width="0.6214" d="M13.015 24.415v-8.48h5.869v8.48"></path>
</symbol>
<symbol id="icon-loupe" viewBox="0 0 32 32">
<path d="M31.563 25.692l-6.231-5.354c-0.281-0.242-0.662-0.376-1.062-0.376h-1.019c1.725-1.896 2.75-4.28 2.75-6.873 0-6.17-5.819-11.169-13-11.169s-13 4.999-13 11.169 5.819 11.169 13 11.169c3.019 0 5.794-0.881 8-2.363v0.875c0 0.344 0.156 0.671 0.438 0.913l6.231 5.354c0.588 0.505 1.538 0.505 2.119 0l1.769-1.52c0.588-0.505 0.588-1.321 0.006-1.826zM13 19.963c-4.419 0-8-3.072-8-6.873 0-3.796 3.575-6.873 8-6.873 4.419 0 8 3.072 8 6.873 0 3.797-3.575 6.873-8 6.873z"></path>
</symbol>
<symbol id="icon-planning" viewBox="0 0 32 32">
<path fill="#254d4d" style="fill: var(--color1, #254d4d)" d="M32 16c0 8.837-7.163 16-16 16s-16-7.163-16-16c0-8.837 7.163-16 16-16s16 7.163 16 16z"></path>
<path fill="none" stroke="#fff" style="stroke: var(--color2, #fff)" stroke-linejoin="round" stroke-linecap="round" stroke-miterlimit="4" stroke-width="0.6214" d="M17.86 7.456h-7.826c-0.519 0-1.016 0.179-1.383 0.497s-0.573 0.749-0.573 1.199v13.567c0 0.45 0.206 0.881 0.573 1.199s0.865 0.497 1.383 0.497h11.738c0.519 0 1.016-0.179 1.383-0.497s0.573-0.749 0.573-1.199v-10.176l-5.869-5.088z"></path>
<path fill="none" stroke="#fff" style="stroke: var(--color2, #fff)" stroke-linejoin="round" stroke-linecap="round" stroke-miterlimit="4" stroke-width="0.6214" d="M17.86 7.456v5.088h5.869"></path>
<path fill="none" stroke="#fff" style="stroke: var(--color2, #fff)" stroke-linejoin="round" stroke-linecap="round" stroke-miterlimit="4" stroke-width="0.6214" d="M19.816 16.784h-7.826"></path>
<path fill="none" stroke="#fff" style="stroke: var(--color2, #fff)" stroke-linejoin="round" stroke-linecap="round" stroke-miterlimit="4" stroke-width="0.6214" d="M19.816 20.176h-7.826"></path>
<path fill="none" stroke="#fff" style="stroke: var(--color2, #fff)" stroke-linejoin="round" stroke-linecap="round" stroke-miterlimit="4" stroke-width="0.6214" d="M13.947 13.392h-1.956"></path>
</symbol>
<symbol id="icon-twitter" viewBox="0 0 32 32">
<path d="M27.876 10.286c0.020 0.271 0.020 0.542 0.020 0.813 0 8.263-6.345 17.783-17.942 17.783-3.573 0-6.892-1.026-9.684-2.806 0.508 0.058 0.996 0.077 1.523 0.077 2.948 0 5.662-0.987 7.829-2.67-2.772-0.058-5.096-1.858-5.896-4.335 0.391 0.058 0.781 0.097 1.191 0.097 0.566 0 1.132-0.077 1.66-0.213-2.889-0.581-5.057-3.096-5.057-6.134v-0.077c0.839 0.464 1.816 0.755 2.85 0.793-1.699-1.122-2.811-3.038-2.811-5.205 0-1.161 0.312-2.225 0.859-3.154 3.104 3.793 7.77 6.27 13.003 6.541-0.098-0.464-0.156-0.948-0.156-1.432 0-3.444 2.811-6.25 6.306-6.25 1.816 0 3.456 0.755 4.607 1.974 1.425-0.271 2.792-0.793 4.002-1.509-0.469 1.451-1.464 2.67-2.772 3.444 1.269-0.135 2.499-0.484 3.631-0.968-0.859 1.238-1.933 2.341-3.163 3.232z"></path>
</symbol>
</defs>
</svg>
